<?xml version="1.0" standalone="no"?><!DOCTYPE svg PUBLIC "-//W3C//DTD SVG 1.1//EN" "http://www.w3.org/Graphics/SVG/1.1/DTD/svg11.dtd"><svg class="icon" width="30px" height="30.00px" viewBox="0 0 1024 1024" version="1.1" xmlns="http://www.w3.org/2000/svg"><path d="M972.8 699.392c-37.888-11.264-269.312-81.92-323.584-101.376 35.84-60.416 63.488-130.048 82.944-205.824L528.384 392.192l0-68.608L778.24 323.584l0-41.984L528.384 281.6 528.384 168.96l-96.256 0c-17.408 0-19.456 15.36-19.456 15.36l0 98.304L179.2 282.624l0 41.984 234.496 0 0 68.608L221.184 393.216l0 37.888 388.096 0c-14.336 48.128-32.768 93.184-55.296 134.144-87.04-28.672-136.192-48.128-243.712-58.368-203.776-19.456-250.88 92.16-258.048 159.744C40.96 770.048 133.12 854.016 271.36 854.016c138.24 0 229.376-63.488 317.44-167.936 111.616 53.248 381.952 168.96 381.952 168.96L972.8 699.392 972.8 699.392 972.8 699.392 972.8 699.392zM256 788.48C110.592 788.48 87.04 697.344 95.232 659.456c7.168-37.888 50.176-87.04 131.072-87.04 93.184 0 177.152 23.552 276.48 71.68C432.128 735.232 346.112 788.48 256 788.48L256 788.48 256 788.48 256 788.48z" fill="#01a2e8" /></svg>