<?xml version="1.0" standalone="no"?><!DOCTYPE svg PUBLIC "-//W3C//DTD SVG 1.1//EN" "http://www.w3.org/Graphics/SVG/1.1/DTD/svg11.dtd"><svg class="icon" width="30px" height="30.00px" viewBox="0 0 1024 1024" version="1.1" xmlns="http://www.w3.org/2000/svg"><path d="M237.076 766.628l75.065-322.36a9.231 9.231 0 0 0-2.156-0.251c-3.123 0-6.354 1.484-9.646 3.01-1.797 6.472-5.447 24.54-7.173 32.845-3.686 17.382-3.947 19.364-5.596 27.986l-1.09 1.137c-13.205-0.21-17.767-0.21-32.973 0.532l-0.707-1.224a2474.428 2474.428 0 0 0 7.496-31.093c6.39-28.027 7.884-38.769 9.666-53.013l1.183-0.865c14.822-2.043 18.406-2.478 34.442-5.776l1.342 1.521-2.407 8.945c2.709-1.618 5.269-3.262 8.08-4.695 1.602-0.784 3.246-1.429 4.879-1.997l38.154-163.845c8.387-35.687 43.94-64.681 79.488-64.681H201.6c-35.625 0-71.22 28.994-79.473 64.68L3.451 766.629c-8.295 35.61 13.84 64.563 49.387 64.563h233.554c-35.635 0.005-57.682-28.948-49.316-64.563zM213.745 498.79c-11.387 6.897-28.176 10.742-46.121 10.742-13.916 0-38.523-2.222-47.191-17.336-2.714-4.792-4.03-10.404-4.03-17.28l3.093-23.24 1.643-7.122 18.924-83.742s0.967-4.619 1.203-5.361c0.4 0.563 6.83 0.865 42.941 0.563-0.076 0.282-0.148 0.538-0.276 1.08-3.328 9.82-21.878 84.173-21.878 84.173-0.051 0.077-3.574 22.195-3.574 22.195l0.21 3.753c1.168 10.947 7.987 16.702 19.564 16.702 7.224 0 13.43-2.12 18.8-6.523 9.38-7.573 12.145-19.374 15.954-35.881 0.077-0.051 17.73-81.618 18.724-86.067 2.483 0.563 10.179 0.845 36.362 0.568a4.168 4.168 0 0 0-0.302 1.086c-3.271 10.045-22.374 87.265-22.374 87.265l-2.15 8.284c-4.588 16.184-9.79 34.442-29.522 46.141z" fill="#E03333" /><path d="M518.38 766.628l19.691-84.588h-8.381c-6.938 0-12.032-0.138-15.555-0.43-3.369-0.25-6.866 0-9.195-1.817-2.048-1.808-5.172-4.137-5.1-6.564 0.225-2.238 1.137-5.955 2.56-11.024l39.772-131.778h28.36L566.4 544.69s1.848-1.459 4.408-3.271l7.573-32.523c-5.08 0.046-10.158 0.22-18.565 0.635l-0.564-1.08c1.27-5.683 2.72-11.315 4.081-17.086l1.787-7.782c2.785-12.155 5.484-26.25 5.79-30.51 0.267-2.616 1.137-9.052-6.2-9.052-3.164 0-6.38 1.485-9.661 3.01-1.807 6.472-5.468 24.54-7.245 32.845-3.65 17.383-3.891 19.364-5.55 27.986l-1.09 1.137c-13.205-0.21-17.731-0.21-32.917 0.532l-0.696-1.224a3811.964 3811.964 0 0 0 7.465-31.093c6.359-28.027 7.849-38.769 9.6-53.013l1.177-0.865c14.828-2.043 18.432-2.478 34.463-5.775l1.275 1.52-2.345 8.945a145.74 145.74 0 0 1 8.069-4.695c7.48-3.697 15.99-4.808 20.526-4.808 3.768 0 7.71 0.61 11.085 2.391l38.047-163.43c8.32-35.681 43.909-64.676 79.57-64.676h-281.36c-35.548 0-71.101 28.995-79.488 64.68l-38.154 163.846c6.072-2.1 12.052-2.81 15.698-2.81 7.03 0 14.674 1.975 17.89 10.08 3.066 7.225 1.064 16.17-2.955 33.751l-2.058 8.925c-4.112 19.563-4.788 23.163-7.076 36.577l-1.526 1.147c-12.815-0.21-17.295-0.21-32.287 0.527l-0.583-1.08c1.326-5.683 2.718-11.315 3.988-17.086l1.843-7.782c2.77-12.155 5.515-26.25 5.806-30.51 0.23-2.325 0.917-7.629-4.08-8.801l-75.065 322.36c-8.366 35.61 13.681 64.563 49.316 64.563h281.314c-35.615 0-57.718-28.953-49.326-64.568z m9.482-225.362l-6.093 20.224h-45.481l-4.94 4.28c-2.11 2.028-2.832 1.178-5.607 2.688-2.586 1.311-7.987 3.85-15.002 3.85h-14.582l5.909-19.47h4.418c3.697 0 6.237-0.323 7.465-1.148 1.45-0.947 3.067-2.99 4.92-6.302l8.362-15.243h33.126l-5.796 11.116h33.3z m-119.42-107.07c-1.264 4.788-5.385 20.675-6.594 25.472-1.408 5.776-2.887 11.495-4.26 17.219-2.856 12.19-4.014 16.701-4.71 19.948-0.655 3.102-0.809 4.777-1.992 11.115l-0.696 0.553-0.706 0.522c-7.701-0.046-12.667-0.194-17.5-0.046-4.844 0.046-9.529 0.256-16.702 0.543l-0.435-0.543-0.461-0.614c1.925-6.989 3.036-9.457 4.004-11.914 0.967-2.463 1.91-4.972 3.63-12.063 2.217-9.206 3.645-15.683 4.587-21.356 0.973-5.156 4.424-20.695 5.095-25.682-0.702-3.732 1.536-8.043 6.61-11.494 8.053-5.555 19.968-6.81 26.808-2.821 4.475 2.662 5.463 6.948 3.323 11.161z m6.421 30.127c2.755-11.823 7.342-24.182 17.096-33.255 13.711-12.641 31.191-13.384 38.538-13.384 12.258 0 24.028 2.76 30.725 11.285 4.409 5.611 7.824 14.817 3.339 34.534-1.347 5.899-5.294 20.327-14.06 30.03-11.223 11.965-26.214 15.989-40.847 15.989-5.745 0-14.551-0.732-20.777-3.338-19.968-8.06-16.753-29.84-14.014-41.861zM484.5 682.015h-37.437c-2.96 0-5.263-0.415-8.51-1.147-3.169-0.789-4.54-2.212-5.954-4.373-1.377-2.201-3.425-3.957-2.022-8.632l10.736-35.6h-18.432l6.108-20.33h18.56l4.91-16.508h-18.452l5.878-19.384h81.203l-5.98 19.395H482.61l-5.058 16.496h33.228l-6.036 19.994h-33.229l-8.033 26.86c-0.988 2.969 7.864 3.363 11.054 3.363l16.63-2.273-6.667 22.139z" fill="#004889" /><path d="M565.258 552.008l-6.789 22.543s1.982-1.761 5.53-3.896l4.347-18.652h-3.088z m-111.324-62.823c3.594 0 6.866-2.345 9.6-6.164 3.963-5.274 6.84-17.633 7.516-20.946 3.482-14.976 2.975-24.264-5.033-24.259-10.137 0-14.162 12.488-17.51 27.413-1.178 5.145-2.104 9.933-2.023 14.582 0.093 9.374 6.406 9.374 7.45 9.374z m81.49 162.873c-1.198 4.09-1.756 6.036-0.963 7.127 0.66 0.983 2.15 2.104 4.23 2.104l4.31-0.41 11.643-50.027h-6.722l-12.498 41.206z m20.475-68.998l-2.857 9.396h5.888l2.186-9.396z" fill="#004889" /><path d="M774.482 489.513c3.579 0 9.84-2.33 12.452-6.037 1.408-1.817 2.662-4.592 3.737-7.495 1.09-4.357 2.202-8.694 3.22-13.082 0.672-3.02 1.291-5.683 1.813-8.176 0.727-10.174-2.672-16.128-9.108-16.128-10.163 0-14.152 12.451-17.541 27.038-1.157 5.202-2.13 9.99-2.079 14.577 0.22 9.303 6.513 9.303 7.506 9.303z m-175.084 102.8l3.011-9.253h-41.293l-2.186 9.396h34.355c4.746-0.615 5.724 0.076 6.113-0.144z" fill="#008089" /><path d="M971.141 192.804H716.477c-35.66 0-71.25 28.994-79.57 64.676l-38.046 163.43c2.908 1.536 5.407 3.937 6.932 7.69 2.99 7.225 0.973 16.17-3.061 33.751l-2.028 8.925c-4.178 19.563-4.838 23.162-7.04 36.577L592.092 509a566.364 566.364 0 0 0-13.721-0.108l-7.573 32.522c3.144-2.232 7.378-5.007 10.84-6.415 6.24-2.35 20.377-4.46 20.377-4.46l45.854-0.215-15.6 52.066c-2.637 8.95-5.678 14.73-7.609 17.336-1.75 2.703-3.763 4.946-7.777 7.158-3.911 2.032-7.393 3.236-10.634 3.563-3.057 0.23-7.716 0.349-14.157 0.4H554.63l-11.643 50.027 15.17-1.438-6.63 22.6h-13.47l-19.692 84.587c-8.392 35.61 13.712 64.563 49.326 64.563h254.618c35.691 0 71.28-28.954 79.59-64.563l118.62-509.148c8.351-35.677-13.778-64.671-49.377-64.671z m-181.95 225.72c5.372 2.058 8.833 5.35 11.213 9.237 0.185-1.178 0.318-2.376 0.482-3.605l1.136-0.968c15.36-2.17 19.63-2.78 35.62-5.754l0.522 1.32c-2.923 12.079-5.852 24.172-8.647 36.306-5.898 25.457-8.06 38.35-10.312 51.63l-1.418 1.08c-15.432-0.122-19.87-0.122-34.191 0.492l-0.932-1.136c0.466-1.797 0.926-3.605 1.408-5.371-5.228 4.372-10.85 7.393-16.937 7.72a39.578 39.578 0 0 1-17.767-3.215c-19.87-7.746-16.67-29.465-13.91-41.333 2.698-11.802 7.346-24.06 17.08-33.075 13.737-12.54 29.803-15.99 36.654-13.328z m-176 90.875l24.853-102.374c0-0.067 9.846-46.04 9.846-46.04s0.747-3.624 1.178-5.616c4.551 0.538 15.651 0.66 43.36 0.348l10.64-0.148c21.688 0.148 40.371 0.338 49.797 13.537 3.728 4.94 5.023 11.238 5.023 17.654 0 4.864-0.748 9.79-1.73 13.88-3.82 16.655-12.473 30.418-24.981 39.726-18.406 13.609-42.02 13.609-62.853 13.609h-2.176c-1.552 0.804-3.052 2.862-3.052 2.862-0.266 0.727-5.058 20.823-5.058 20.823-0.062 0-5.673 27.28-6.64 31.867-4.138-0.404-14.066-0.404-38.206-0.128zM622.255 627c-1.116 3.902-2.104 6.866-5.048 9.37-3.067 2.611-6.764 5.381-15.283 5.381l-15.688 0.63-0.138 14.172c-0.21 4.03 0.87 3.6 1.5 4.26a5.064 5.064 0 0 0 2.073 1.229l4.977-0.21 15.032-0.901-6.164 20.659h-17.27c-12.093 0-21.033-0.261-24.002-2.622-2.883-1.812-3.298-4.162-3.22-8.074l1.12-55.178h27.52L587.29 627h6.63c2.248 0 3.768-0.235 4.71-0.819 0.82-0.65 1.45-1.52 1.91-2.882l2.678-8.822h21.652L622.254 627z m96.466 54.871h-29.532l2.012-6.59h-60.052l6.051-19.64h6.073l31.488-104.32 6.292-21.068h30.131l-3.143 10.64s8.043-5.781 15.641-7.737c6.288-1.68 37.381-2.473 47.795-2.693v-0.041h1.87l1.602-0.031-0.01 0.03h28.718l0.358 12.023c-0.2 1.991 1.541 2.949 5.258 2.949h6.533l-6 19.799h-17.347c-15.042 1.09-20.751-5.381-20.403-12.642l-0.312-11.76-3.236 10.532H758.16l-31.047 102.743h8.34l-6.43 21.217h-8.341l-1.961 6.59z m133.228-91.259H819.67l-5.053 16.062h32.378l-5.33 17.649h-35.051l-6.216 7.418h14.213l3.451 22.221c0.369 2.197 0.44 3.64 1.122 4.562 0.701 0.845 4.992 1.198 7.444 1.198h4.306l-6.548 21.617h-10.932c-1.72 0-4.188-0.128-7.618-0.318-3.308-0.27-5.632-2.201-7.829-3.235-2.012-1.014-5.022-3.451-5.724-7.573l-3.41-22.149-15.938 21.816c-5.023 6.897-11.894 12.16-23.435 12.16h-22.29l5.806-19.287h8.54c2.468 0 4.66-0.957 6.231-1.807 1.649-0.676 3.129-1.51 4.741-3.922l23.179-32.707h-30.638l5.242-17.648h35.037l5.002-16.062h-34.58l5.928-19.901h96.297l-6.046 19.906z m20.408-61.23l-1.377 1.521h0.245l-12.467 21.289c-3.932 7.27-11.213 12.708-22.82 12.77l-19.86-0.308 5.78-19.215h3.85c2.028 0 3.523-0.128 4.67-0.691 0.963-0.333 1.69-1.112 2.53-2.228l6.988-11.151-0.015-0.087c9.856-15.007 12.329-21.438 22.625-38.523-1.792-19.062-2.662-25.236-4.198-37.755-0.85-7.45-2.028-15.114-2.93-22.656-1.883-15.406-1.448-13.21-3.358-22.999l-0.102-0.246c0.087-0.583 0.097-1.141 0.2-1.694l1.249-1.045c15.268-1.93 15.728-2.483 32.26-5.627l1.363 1.378 2.212 42.603c0.025 0.809 0.061 1.613 0.107 2.417 8.837-19.656 8.458-14.27 19.308-39.25l0.076 0.225c0.041-0.23 0.077-0.538 0.134-0.706l1.116-1.045c14.51-1.93 17.408-2.483 33.172-5.627l1.244 1.377c0 0.006-63.646 109.251-72.002 127.273z" fill="#008089" /><path d="M608.768 563.108l3.348-11.1H568.34l-4.346 18.652a55.004 55.004 0 0 1 19.097-7.06c3.533-0.728 25.677-0.492 25.677-0.492z m90.803-136.73c8.515-4.157 15.11-12.78 17.383-22.932 2.488-11.172-1.06-19.804-9.631-23.102l-22.293-1.925-4.208-0.44-0.236 1.817-0.246 2.35c0.052-0.138-10.542 45.748-10.542 45.748l-0.44 2.304h5.73c8.852 0 17.438-0.277 24.483-3.82zM673.91 654.341h24.028l6.932-23.08h-24.002z m31.14-103.02l-7.962 26.261s8.919-4.02 13.819-5.376c4.93-1.295 12.35-1.766 12.35-1.766l5.76-19.118H705.05z m-20.189 66.607s9.165-4.66 14.03-6.14c4.935-1.141 12.41-2.047 12.41-2.047l5.863-19.108h-24.029l-8.274 27.295z" fill="#008089" /></svg>