<?xml version="1.0" standalone="no"?><!DOCTYPE svg PUBLIC "-//W3C//DTD SVG 1.1//EN" "http://www.w3.org/Graphics/SVG/1.1/DTD/svg11.dtd"><svg class="icon" width="30px" height="30.00px" viewBox="0 0 1024 1024" version="1.1" xmlns="http://www.w3.org/2000/svg"><path d="M669.029 360.062c10.181 0 20.236 0.748 30.238 1.865-27.167-126.533-162.436-220.531-316.852-220.531-172.618 0-314.035 117.66-314.035 267.067 0 86.242 47.044 157.061 125.674 211.988l-31.407 94.468 109.755-55.053c39.303 7.781 70.81 15.765 110.011 15.765 9.85 0 19.625-0.482 29.323-1.243-6.144-20.996-9.698-42.983-9.698-65.792 0.002-137.197 117.807-248.533 266.991-248.533zM500.168 274.923c23.639 0 39.303 15.55 39.303 39.185 0 23.536-15.664 39.3-39.303 39.3-23.536 0-47.147-15.765-47.147-39.3 0.001-23.635 23.612-39.185 47.147-39.185zM280.403 353.41c-23.537 0-47.3-15.765-47.3-39.3 0-23.635 23.764-39.185 47.3-39.185 23.535 0 39.2 15.55 39.2 39.185 0 23.535-15.665 39.3-39.2 39.3z" fill="#42AE3C" /><path d="M955.618 604.813c0-125.543-125.622-227.882-266.734-227.882-149.413 0-267.091 102.339-267.091 227.882 0 125.77 117.678 227.879 267.091 227.879 31.279 0 62.838-7.897 94.243-15.765l86.12 47.17-23.613-78.473c63.041-47.286 109.983-109.993 109.983-180.811zM602.307 565.525c-15.639 0-31.431-15.549-31.431-31.417 0-15.651 15.792-31.405 31.431-31.405 23.74 0 39.303 15.755 39.303 31.405 0 15.867-15.563 31.417-39.303 31.417zM775.028 565.525c-15.539 0-31.202-15.549-31.202-31.417 0-15.651 15.664-31.405 31.202-31.405 23.536 0 39.301 15.755 39.301 31.405 0.001 15.867-15.765 31.417-39.301 31.417z" fill="#42AE3C" /></svg>